<svg width="56" height="54" viewBox="0 0 56 54" fill="none" xmlns="http://www.w3.org/2000/svg">
<path d="M55.0203 25.3563C54.6849 24.4099 54.1964 23.5431 53.5329 22.8274C52.6798 21.9049 51.6591 21.3244 50.5508 20.9745C48.7062 20.4019 46.6428 20.4974 44.7908 20.8155C44.0763 20.9347 43.3472 21.0461 42.6108 21.1415C41.1307 21.3403 39.6068 21.5232 38.083 21.7538C37.3247 21.8652 36.5591 22.0004 35.8082 22.1435C32.7896 22.7479 29.8805 23.7022 27.4525 25.6107C21.8967 29.9766 23.457 38.2868 24.8059 44.6408C25.5058 47.941 26.7307 51.5753 29.5888 52.9033C30.1721 53.1737 30.7773 53.3407 31.397 53.4123C34.4812 53.7781 37.8788 51.8854 40.7005 49.8576C41.2692 49.452 41.8087 49.0464 42.3191 48.6488C42.8295 48.2512 43.318 47.8615 43.7628 47.5116C44.995 46.5255 46.3001 45.3645 47.5687 44.0762C51.0685 40.5215 54.3276 35.9647 55.29 31.2092C55.3775 30.7798 55.4431 30.3424 55.4942 29.905C55.6619 28.3861 55.5233 26.7797 55.0203 25.3563Z" fill="#EB3C38"/>
<path d="M43.0883 0.875155C41.934 0.479359 40.7373 0.242909 39.5358 0.114404C39.5217 0.114404 39.5076 0.114404 39.4934 0.114404C38.3297 -0.00896134 37.1565 -0.034663 35.9881 0.0475805C34.9939 0.119543 33.9904 0.258329 33.0292 0.551321C29.227 1.70787 26.5414 5.15182 24.8264 8.87333C24.1103 10.4257 23.4177 11.9934 22.7816 13.592C22.7816 13.5818 22.7816 13.5715 22.7816 13.5612C22.7439 13.6486 22.7204 13.7411 22.6827 13.8336C22.3199 14.7537 21.9712 15.6841 21.665 16.6248C21.665 16.6248 21.665 16.6299 21.665 16.6351C21.4294 17.3598 21.0054 18.4033 20.6756 19.5033C20.129 21.3384 19.8605 23.3482 21.1938 24.3454C21.8393 24.8286 22.7156 24.8183 23.4506 24.5304C26.0938 23.4972 27.7146 21.1327 29.2317 18.7066C29.7358 17.8995 30.2306 17.0823 30.7488 16.3061C33.392 12.3327 36.8785 10.6724 41.3262 10.292C42.8056 10.1635 44.3934 10.3126 45.8305 9.85511C46.622 9.60324 47.3806 9.0995 47.7952 8.32333C48.0779 7.79388 48.1957 7.22332 48.1909 6.65276C48.158 3.57377 45.463 1.69759 43.0742 0.880296L43.0883 0.875155Z" fill="#3C62D7"/>
<path d="M19.6712 40.2574C19.7654 40.0775 19.8502 39.8873 19.9209 39.692C19.9444 39.6251 19.9727 39.5583 19.9963 39.4915C20.0811 39.2345 20.1518 38.9723 20.2036 38.6999C20.2177 38.6331 20.2224 38.5714 20.2366 38.5046C20.2743 38.2887 20.3025 38.0677 20.3261 37.8466C20.3355 37.7438 20.3449 37.6462 20.3496 37.5434C20.3638 37.3377 20.3732 37.127 20.3732 36.9214C20.3732 36.8391 20.3779 36.7518 20.3779 36.6695C20.3779 36.4228 20.3732 36.1812 20.3591 35.9396C20.3591 35.9396 20.3591 35.9447 20.3591 35.9499C20.3261 35.2457 20.2601 34.5672 20.1942 33.9555C19.5911 28.6354 17.829 22.5185 13.9844 18.8946C12.5662 17.5582 10.6627 16.6844 8.81579 17.0442C4.57541 17.8615 1.22079 23.0634 0.561177 27.7975C0.561177 27.7924 0.561177 27.7872 0.561177 27.7769C0.561177 27.8026 0.561178 27.8283 0.551755 27.854C0.514063 28.147 0.485794 28.4349 0.466948 28.7227C0.462236 28.805 0.452812 28.8872 0.448101 28.9643C0.433966 29.3293 0.433966 29.6891 0.448101 30.0386C0.53762 31.555 1.15012 33.1125 2.33272 33.9144C3.78387 34.9013 5.54599 34.9732 7.11964 35.6106C8.86291 36.3148 9.97954 37.8312 11.2281 39.2653C12.4625 40.6789 14.0739 41.9382 15.8972 42.1747C16.1846 42.2107 16.472 42.2209 16.7642 42.1952C17.3437 42.149 17.9091 41.9742 18.4085 41.6709C18.6582 41.5167 18.8891 41.3317 19.0917 41.1107C19.2754 40.9153 19.4262 40.6943 19.5628 40.463C19.6005 40.3962 19.6382 40.3293 19.6759 40.2574H19.6712Z" fill="#FACF71"/>
</svg>
